<?xml version="1.0" encoding="utf-8"?>
<!-- Generator: Adobe Illustrator 21.0.2, SVG Export Plug-In . SVG Version: 6.00 Build 0)  -->
<svg version="1.1" id="Layer_1" xmlns="http://www.w3.org/2000/svg" xmlns:xlink="http://www.w3.org/1999/xlink" x="0px" y="0px"
	 viewBox="0 0 300 300" style="enable-background:new 0 0 300 300;" xml:space="preserve">
<style type="text/css">
	.st0{fill:#FF8A19;}
	.st1{fill:#FFFFFF;}
	.st2{fill:none;}
</style>
<g>
	<g>
		<path class="st0" d="M150,0C67.2,0,0,67.2,0,150c0,48.7,23.2,91.9,59.1,119.3v-26.1c0-66,58-66,70.8-83.3l1.5-7.9
			c-18.1-9.2-30.8-31.2-30.8-57.1c0-34,22.1-61.6,49.4-61.6S199.4,61,199.4,95c0,25.6-12.5,47.6-30.4,56.9l1.7,9
			c14.1,16.4,70.2,17.5,70.2,82.4v26.1C276.8,241.9,300,198.7,300,150C300,67.2,232.8,0,150,0z"/>
	</g>
</g>
</svg>
